<svg width="48" height="48" viewBox="0 0 48 48" fill="none" xmlns="http://www.w3.org/2000/svg" role="img" aria-label="Hanji">
  <path d="M12 3H36C39.3137 3 42 5.6863 42 9V34L34 45H12C8.6863 45 6 42.3137 6 39V9C6 5.6863 8.6863 3 12 3Z" fill="#F4E8C1"/>
  <path d="M14 14C18 12 22 16 26 14C30 12 33 14 36 13" stroke="#C9B98A" stroke-width="2" stroke-linecap="round" opacity="0.55"/>
  <path d="M13 23C17 25 21 21 25 23C29 25 33 22 37 24" stroke="#C9B98A" stroke-width="2" stroke-linecap="round" opacity="0.45"/>
  <path d="M34 45V36C34 34.8954 34.8954 34 36 34H42L34 45Z" fill="#E8D89E"/>
</svg>
